<?xml version="1.0" encoding="UTF-8"?>
<svg id="Capa_2" data-name="Capa 2" xmlns="http://www.w3.org/2000/svg" viewBox="0 0 447.29 361.53">
  <defs>
    <style>
      .cls-1 {
        fill: #ffaf00;
      }

      .cls-1, .cls-2, .cls-3, .cls-4 {
        stroke-width: 0px;
      }

      .cls-3, .cls-5 {
        fill: #fff;
      }

      .cls-5 {
        stroke: #fff;
        stroke-miterlimit: 10;
        stroke-width: 1.5px;
      }

      .cls-4 {
        fill: #ff1a45;
      }
    </style>
  </defs>
  <g id="Capa_1-2" data-name="Capa 1">
    <g>
      <g>
        <g>
          <rect class="cls-2" x="60.32" y="259.59" width="61.52" height="2.75" transform="translate(-126 89.87) rotate(-32.52)"/>
          <path class="cls-2" d="m116.16,243.79l1.07,1.69-51.24,32.67-1.07-1.69,51.24-32.67m.23-1.04l-.63.4-51.24,32.67-.63.4.4.63,1.07,1.69.4.63.63-.4,51.24-32.67.63-.4-.4-.63-1.07-1.69-.4-.63h0Z"/>
        </g>
        <g>
          <path class="cls-2" d="m54.98,283.56c3.18-4.2,7.51-11.19,9.24-17.09l.41-1.39,2.5,11.15,9.05,6.97-1.43-.22c-1.61-.24-3.46-.37-5.5-.37-4.32,0-9.38.56-13.9,1.53l-.99.21.61-.81Z"/>
          <path class="cls-2" d="m64.58,266.57l2.21,9.87,8.01,6.17c-1.7-.26-3.59-.37-5.55-.37-4.67,0-9.81.64-13.97,1.54,3.66-4.83,7.67-11.65,9.3-17.21m.1-2.99l-.82,2.78c-1.72,5.85-6.02,12.8-9.18,16.97l-1.22,1.61,1.98-.43c4.49-.97,9.52-1.52,13.82-1.52,2.02,0,3.85.12,5.44.36l2.86.43-2.3-1.77-7.8-6.01-2.15-9.6-.63-2.83h0Z"/>
        </g>
        <g>
          <polygon class="cls-2" points="115.3 244.22 122.07 230.56 136.03 221.66 133.28 234.05 145.67 236.8 131.71 245.7 116.48 246.07 115.3 244.22"/>
          <path class="cls-2" d="m135.46,222.47l-2.63,11.87,11.87,2.63-13.11,8.36-14.92.37-.95-1.5,6.63-13.37,13.11-8.36m1.12-1.61l-1.53.97-13.11,8.36-.18.11-.09.19-6.63,13.37-.19.38.23.36.95,1.5.23.36h.42s14.92-.38,14.92-.38h.21s.18-.12.18-.12l13.11-8.36,1.53-.97-1.77-.39-11.14-2.47,2.47-11.14.39-1.77h0Z"/>
        </g>
      </g>
      <g>
        <path class="cls-4" d="m61.62,68.76h4.18v19.8H18.94v-19.8h4.18c2.34,0,2.95-.61,2.95-2.34V22.51h-7.5l-1.84,12.3H0V0h84.75v34.81h-16.73l-1.84-12.3h-7.5v43.91c0,1.72.62,2.34,2.95,2.34Z"/>
        <path class="cls-4" d="m122.07,28.28c4.81-3.21,11.35-5.04,17.65-5.04,10.54,0,19.6,4.81,19.6,20.06v25.79c0,1.38.46,2.06,1.83,2.18h4.81v17.31h-35.3v-40.57c0-2.64-.8-3.67-3.21-3.67-1.38,0-3.78,1.03-5.39,2.18v24.76h4.81v17.31h-40.11v-17.31h3.9c1.95,0,2.64-.69,2.75-2.18V21.29c0-1.95-.46-2.87-2.75-2.87h-3.9V1.11h35.3v27.16Z"/>
        <path class="cls-4" d="m168.59,56.81c0-23.49,14.79-33.58,34.5-33.58,22.58,0,29.91,13.18,29.91,29.57v8.94h-34.27c.34,5.5,2.06,9.17,9.63,9.17,3.21,0,7.79-.34,9.74-5.27h14.33v19.37c-9.4,3.44-20.97,4.93-28.65,4.93-21.66,0-35.19-10.77-35.19-33.12Zm38.85-9.97v-.92c0-2.87-1.38-4.58-4.01-4.58-3.67,0-5.04,3.21-5.04,5.5h9.05Z"/>
        <path class="cls-1" d="m8.97,134.42H3.45v-22.22h52.58v22.22h-8v51.89h14.77l5.38-13.39h17.94v38.64H3.45v-22.22h4.69c2.62,0,3.31-.69,3.31-2.62v-49.68c0-1.66-.69-2.62-2.48-2.62Z"/>
        <path class="cls-1" d="m141.17,205.9c-5.93,4.55-14.63,7.31-23.05,7.31-12.7,0-23.6-5.8-23.6-24.15v-31.05c0-1.66-.69-2.62-2.48-2.62h-3.59v-20.84h40.57v48.85c0,3.17.97,4.42,3.86,4.42,1.66,0,4.55-1.24,6.49-2.62v-29.81h-5.8v-20.84h40.3v52.72c0,2.35.83,3.45,3.31,3.45h4.69v20.84c-5.52.55-11.87,1.52-18.08,1.52-8.56,0-16.84-1.1-21.8-7.18h-.83Z"/>
        <path class="cls-1" d="m189.75,156.77c-.28-.83-.83-1.38-2.07-1.38h-5.38v-20.84h48.02v20.84h-5.66l6.62,25.39.69,4.42h.97l.83-4.42,6.62-25.39h-5.11v-20.84h40.99v20.84h-5.52c-.97,0-1.66.28-1.93,1.1l-18.49,55.2h-41.54l-19.04-54.92Z"/>
        <path class="cls-4" d="m4.31,333.16h5.58c2.95,0,3.94-.66,3.94-3.12v-59.04c0-1.97-.82-3.12-2.95-3.12h-6.56v-26.4h67.73c27.55,0,42.31,15.58,42.31,33.13,0,8.2-2.3,18.04-9.68,24.44v.82c11.32,6.72,13.61,15.74,13.61,23.94,0,24.6-18.7,35.75-46.25,35.75H4.31v-26.4Zm52.97-20.17v18.2h7.38c4.92,0,8.36-2.95,8.36-9.18s-3.44-9.02-8.36-9.02h-7.38Z"/>
        <path class="cls-4" d="m186.02,352.84c-7.05,5.41-17.38,8.69-27.39,8.69-15.09,0-28.04-6.89-28.04-28.7v-36.9c0-1.97-.82-3.12-2.95-3.12h-4.26v-24.76h48.22v58.06c0,3.77,1.15,5.25,4.59,5.25,1.97,0,5.41-1.48,7.71-3.12v-35.42h-6.89v-24.76h47.89v62.65c0,2.79.98,4.1,3.94,4.1h5.58v24.76c-6.56.66-14.1,1.8-21.48,1.8-10.17,0-20.01-1.31-25.91-8.53h-.98Z"/>
        <path class="cls-4" d="m273.43,291.34c-7.22,0-10.17,2.95-10.33,8.86h-22.8v-32.14h88.23v22.96l-35.75,45.26h2.13c8.2,0,11.48-2.62,11.64-8.86h22.8v32.14h-88.56v-23.12l37.23-45.1h-4.59Z"/>
        <path class="cls-4" d="m370.84,291.34c-7.22,0-10.17,2.95-10.33,8.86h-22.8v-32.14h88.23v22.96l-35.75,45.26h2.13c8.2,0,11.48-2.62,11.64-8.86h22.8v32.14h-88.56v-23.12l37.23-45.1h-4.59Z"/>
      </g>
      <polygon class="cls-1" points="269.54 301.6 251.25 323.73 302.69 323.73 320.16 301.6 269.54 301.6"/>
      <polygon class="cls-1" points="366.88 301.6 348.59 323.73 400.03 323.73 417.5 301.6 366.88 301.6"/>
      <path class="cls-5" d="m66.56,275.41l.23,1.04.84.65,37.01-23.59c-.49-.48-.99-.95-1.51-1.4l-36.57,23.31Z"/>
      <path class="cls-3" d="m55.28,283.78c5.92-1.28,13.8-2.03,19.53-1.17l-7.17-5.52-1.64,1.05-1.07-1.69,1.64-1.05-1.98-8.83c-1.64,5.56-5.65,12.38-9.3,17.21Z"/>
      <polygon class="cls-3" points="65.99 278.14 67.64 277.09 66.79 276.44 66.56 275.41 64.92 276.45 65.99 278.14"/>
      <g>
        <path class="cls-2" d="m316.19,93.43c-.24,0-.47-.03-.71-.1-1.45-.39-2.31-1.89-1.92-3.34,1.87-6.92,1.27-12.48-1.76-16.52-5.74-7.64-18.34-7.97-18.47-7.97-1.5-.03-2.7-1.27-2.67-2.77.03-1.5,1.26-2.7,2.77-2.67.63.01,15.4.4,22.72,10.15,4.1,5.45,4.99,12.59,2.66,21.21-.33,1.21-1.43,2.01-2.63,2.01Z"/>
        <path class="cls-2" d="m308.17,101.04c-.11,0-.23,0-.35-.02-1.49-.19-2.55-1.55-2.36-3.04,1.23-9.65-.4-16.38-4.83-20-8.07-6.58-23.11-1.55-23.26-1.5-1.42.48-2.97-.27-3.46-1.7-.49-1.42.27-2.97,1.7-3.46.73-.25,18.08-6.04,28.46,2.43,5.99,4.88,8.27,13.26,6.79,24.9-.18,1.38-1.35,2.38-2.7,2.38Z"/>
        <g>
          <circle class="cls-1" cx="318.01" cy="116.88" r="28.94"/>
          <path class="cls-2" d="m318.01,91.95c13.75,0,24.94,11.19,24.94,24.94s-11.19,24.94-24.94,24.94-24.94-11.19-24.94-24.94,11.19-24.94,24.94-24.94m0-4c-15.98,0-28.94,12.95-28.94,28.94s12.95,28.94,28.94,28.94,28.94-12.95,28.94-28.94-12.95-28.94-28.94-28.94h0Z"/>
        </g>
        <path class="cls-2" d="m411.15,163.23c-.03-1.52-.18-3.06-.42-4.6,0-.03,0-.06,0-.09h0c-1.71-10.82-8.48-21.83-19.35-29.63-18.88-13.53-42.96-12.24-53.79,2.87-10.83,15.12-4.31,38.34,14.56,51.86,11.54,8.27,25.02,10.99,36.23,8.42h0s19.06-4.57,29.17-3.11c0,0-4.69-11.18-6.37-25.73Z"/>
        <ellipse class="cls-1" cx="372.27" cy="156.39" rx="29.38" ry="37.07" transform="translate(34.66 377.88) rotate(-56.05)"/>
        <path class="cls-2" d="m339.93,168.43c-1.17,0-2.29-.69-2.77-1.85-.64-1.53.08-3.28,1.61-3.92.35-.15,30.91-13.31,28.33-39.44-.16-1.65,1.04-3.12,2.69-3.28,1.64-.17,3.12,1.04,3.28,2.69,3.02,30.59-30.55,44.97-31.98,45.57-.38.16-.77.23-1.15.23Z"/>
        <path class="cls-2" d="m372.46,190.46l-1.93-1.98.06-.06.9-.6,3.5-1.79c6.36-3.3,27.76-16.2,27.03-39.28l-.1-3.29,3.48,1.6,1.75,3.19c.94,29.8-28.46,42.6-31.94,43.36l-2.74-1.16Z"/>
        <path class="cls-2" d="m354.31,184.24c-1.15,0-2.24-.66-2.74-1.77-.68-1.51,0-3.29,1.51-3.96h0c.34-.16,34.39-15.92,32-48.85-.12-1.65,1.12-3.09,2.78-3.21,1.66-.12,3.09,1.12,3.21,2.77,2.7,37.17-35.14,54.59-35.52,54.76-.4.18-.82.26-1.23.26Z"/>
        <path class="cls-2" d="m316.51,118.83c-2.87,0-5.19-2.33-5.19-5.19,0-2.32,1.53-4.26,3.62-4.93-.67-.17-1.36-.27-2.08-.27-4.66,0-8.44,3.78-8.44,8.44s3.78,8.44,8.44,8.44,8.44-3.78,8.44-8.44c0-.37-.03-.73-.08-1.09-.82,1.79-2.62,3.03-4.71,3.03Z"/>
        <path class="cls-2" d="m331.87,194.9c-.4,0-.81-.13-1.15-.38-.71-.54-.96-1.49-.59-2.31.04-.09.07-.17.1-.24-.13,0-.27,0-.39.02-.11.02-.24.03-.35.02-6.19-.19-10.79-2.23-13.66-6.04-3.96-5.27-3.47-12.76-2.55-16.36.57-2.23.27-11.69-.06-17.13-.05-.83.45-1.6,1.23-1.9.78-.29,1.66-.05,2.18.61l25.75,32.99c.63.81.51,1.97-.27,2.63l-9.01,7.63c-.35.3-.79.45-1.23.45Zm-1.68-6.74c.9,0,2.2.19,3.1,1.14l4.96-4.2-20.94-26.84c.15,4.49.21,10.16-.33,12.3-.7,2.74-1.2,9.01,1.9,13.13,2.12,2.82,5.68,4.34,10.58,4.52.18-.02.43-.04.72-.04Z"/>
        <path class="cls-2" d="m369.18,220.31c-.16,0-.33-.02-.49-.06-5.26-1.41-14.46-3.6-16.77-3.5-3.7.17-11.15-.85-15.51-5.79-3.16-3.58-4.23-8.49-3.17-14.6.02-.12.05-.24.1-.35.04-.11.07-.24.09-.36-.07.01-.16.03-.25.05-.86.2-1.76-.24-2.14-1.04-.38-.8-.16-1.77.55-2.32l9.29-7.29c.8-.63,1.97-.51,2.63.26l27.13,31.86c.54.63.61,1.55.16,2.25-.36.56-.97.89-1.61.89Zm-17.16-7.38c2.36,0,7.63,1.15,11.83,2.16l-22.07-25.92-5.12,4.02c.99,1.42.53,3.28.31,3.97-.81,4.84-.04,8.63,2.3,11.28,3.41,3.87,9.64,4.63,12.48,4.51.09,0,.18,0,.28,0Z"/>
        <g>
          <path class="cls-2" d="m317.54,207.1c-.49,0-.97-.22-1.29-.63-.55-.71-.43-1.74.29-2.29l32.17-25.03c.71-.55,1.74-.43,2.29.29.55.71.43,1.74-.29,2.29l-32.17,25.03c-.3.23-.65.34-1,.34Z"/>
          <polygon class="cls-2" points="309.89 211.42 324.09 207.44 318.11 205.02 317.24 198.63 309.89 211.42"/>
        </g>
        <ellipse class="cls-2" cx="337.08" cy="186.68" rx="8.21" ry="6.45" transform="translate(-47.76 167.53) rotate(-26.13)"/>
        <ellipse class="cls-2" cx="343.11" cy="186.72" rx="5.55" ry="4.9" transform="translate(-44.99 142.37) rotate(-22.04)"/>
        <path class="cls-2" d="m388.09,115.94c2.79-2.16,8.2-9.25,8.77-15.1s6.74-7.63,6.74-7.63c0,0,32.71-4.87,37.09-24.27,0,0,3.49-5.93,5.84,1.46,2.35,7.39-.97,20.45-6.66,24.43-5.68,3.98,3.33.41,3.33.41,0,0,6.09,7.71-11.04,13.23,0,0-3.57,1.38-1.46,1.87s3.17,1.38,3.17,1.38c0,0,.57,5.36-9.66,5.84-10.23.49-.49,1.54-.49,1.54,0,0,3.98,7.95-11.04,7.47,0,0-3.08-1.54-2.19.57s4.79,5.68-9.98,5.07c0,0-3-1.1-3.49,1.42l-32.22-13.72s6.01-9.82,1.22-21.27c0,0-.57-4.3,1.87-6.57s14.69-12.17,12.66-31.57c0,0,7.97-5.14,11.18,12.36.31,1.67.33,3.39,0,5.05-.17.85-.17,1.66.52,1.5,1.21-.28,6.72-1.94,4.07,5.64-.69,1.98-1.99,3.66-3.57,5.04-.79.69-1.24,1.5.14,1.99,1.24.44,2.25,1.27,2.99,2.06,1.01,1.07.98,2.75-.03,3.82s-2.24,1.24-3.61,1.51c-2.3.46-2.01,1.17-.59,1.83,1.81.84,2.98,2.75,2.69,4.72-.21,1.44-1.16,2.92-3.8,3.78-1.83.59-3.22,1.83-3.69,3.31"/>
      </g>
    </g>
  </g>
</svg>